<svg width="60" height="60" viewBox="0 0 60 60" fill="none" xmlns="http://www.w3.org/2000/svg">
<path fill-rule="evenodd" clip-rule="evenodd" d="M30 57.6347L41.0475 23.625H18.9525L30 57.6347Z" fill="#E24329"/>
<path fill-rule="evenodd" clip-rule="evenodd" d="M30 57.6347L18.9525 23.625H3.46875L30 57.6347Z" fill="#FC6D26"/>
<path fill-rule="evenodd" clip-rule="evenodd" d="M3.46876 23.625L0.112514 33.9656C-0.0368 34.425 -0.036855 34.9199 0.112357 35.3793C0.261569 35.8387 0.552389 36.2391 0.943139 36.5231L30 57.6347L3.46876 23.625Z" fill="#FCA326"/>
<path fill-rule="evenodd" clip-rule="evenodd" d="M3.46875 23.625H18.9516L12.2981 3.15562C11.9559 2.10187 10.4653 2.10187 10.1231 3.15562L3.46875 23.625Z" fill="#E24329"/>
<path fill-rule="evenodd" clip-rule="evenodd" d="M30 57.6347L41.0475 23.625H56.5312L30 57.6347Z" fill="#FC6D26"/>
<path fill-rule="evenodd" clip-rule="evenodd" d="M56.5312 23.625L59.8875 33.9563C60.0368 34.4156 60.0369 34.9105 59.8877 35.3699C59.7384 35.8294 59.4476 36.2298 59.0569 36.5138L30 57.6347L56.5312 23.625Z" fill="#FCA326"/>
<path fill-rule="evenodd" clip-rule="evenodd" d="M56.5312 23.625H41.0475L47.7019 3.14625C48.044 2.0925 49.5347 2.0925 49.8769 3.14625L56.5312 23.625Z" fill="#E24329"/>
</svg>
