<svg width="60" height="60" viewBox="0 0 60 60" fill="none" xmlns="http://www.w3.org/2000/svg">
<path fill-rule="evenodd" clip-rule="evenodd" d="M6.66667 60H53.3333C57.0152 60 60 57.0152 60 53.3333V6.66667C60 2.98477 57.0152 0 53.3333 0H6.66667C2.98477 0 0 2.98477 0 6.66667V53.3333C0 57.0152 2.98477 60 6.66667 60Z" fill="#007EBB"/>
<path fill-rule="evenodd" clip-rule="evenodd" d="M51.6667 51.6667H42.7631V36.5018C42.7631 32.344 41.1832 30.0204 37.8923 30.0204C34.3122 30.0204 32.4418 32.4384 32.4418 36.5018V51.6667H23.8612V22.7778H32.4418V26.6691C32.4418 26.6691 35.0217 21.8952 41.1522 21.8952C47.2798 21.8952 51.6667 25.6371 51.6667 33.376V51.6667ZM13.6245 18.995C10.7018 18.995 8.33337 16.608 8.33337 13.6642C8.33337 10.7203 10.7018 8.33333 13.6245 8.33333C16.5472 8.33333 18.9142 10.7203 18.9142 13.6642C18.9142 16.608 16.5472 18.995 13.6245 18.995ZM9.19383 51.6667H18.1412V22.7778H9.19383V51.6667Z" fill="white"/>
</svg>
